<?xml version="1.0" encoding="UTF-8" standalone="no"?>
<svg width="48px" height="41px" viewBox="0 0 48 41" version="1.1" xmlns="http://www.w3.org/2000/svg" xmlns:xlink="http://www.w3.org/1999/xlink">
    <!-- Generator: Sketch 39.1 (31720) - http://www.bohemiancoding.com/sketch -->
    <title>AGILE</title>
    <desc>Created with Sketch.</desc>
    <defs></defs>
    <g id="Page-1" stroke="none" stroke-width="1" fill="none" fill-rule="evenodd">
        <g id="ICONS" transform="translate(-665.000000, -258.000000)" fill="#2C3E50">
            <path d="M712.707,291.293 L706.707,285.293 C706.316,284.902 705.684,284.902 705.293,285.293 C704.902,285.684 704.902,286.316 705.293,286.707 L709.586,291 L688.019,291 C684.065,291.006 680.261,289.418 677.404,286.471 C671.532,280.416 671.532,270.585 677.404,264.528 C683.26,258.49 692.74,258.49 698.596,264.528 C704.469,270.585 704.469,280.416 698.596,286.471 C698.211,286.867 698.221,287.5 698.617,287.885 C699.014,288.27 699.646,288.26 700.031,287.863 C706.656,281.032 706.656,269.968 700.031,263.136 C693.391,256.288 682.61,256.288 675.969,263.136 C669.344,269.968 669.344,281.032 675.969,287.863 C677.206,289.14 678.604,290.188 680.108,291 L666,291 C665.448,291 665,291.447 665,292 C665,292.553 665.448,293 666,293 L709.586,293 L705.293,297.293 C704.902,297.684 704.902,298.316 705.293,298.707 C705.684,299.098 706.316,299.098 706.707,298.707 L712.707,292.707 C713.098,292.316 713.098,291.684 712.707,291.293" id="AGILE"></path>
        </g>
    </g>
</svg>