<?xml version="1.0" encoding="UTF-8" standalone="no"?>
<svg width="33px" height="44px" viewBox="0 0 33 44" version="1.1" xmlns="http://www.w3.org/2000/svg" xmlns:xlink="http://www.w3.org/1999/xlink">
    <!-- Generator: Sketch 39.1 (31720) - http://www.bohemiancoding.com/sketch -->
    <title>UX</title>
    <desc>Created with Sketch.</desc>
    <defs></defs>
    <g id="Page-1" stroke="none" stroke-width="1" fill="none" fill-rule="evenodd">
        <g id="ICONS" transform="translate(-801.000000, -256.000000)" fill="#2C3E50">
            <path d="M814.0156,271.479 L814.0156,267.493 C814.0156,266.67 814.6846,266 815.5076,266 C816.3306,266 816.9996,266.67 816.9996,267.493 L816.9996,271.979 L816.9996,273.711 L816.9996,273.768 L816.9996,283.711 C816.9996,284.264 817.4476,284.711 817.9996,284.711 C818.5526,284.711 818.9996,284.264 818.9996,283.711 L818.9996,275.768 C819.4846,275.768 819.9626,275.592 820.3366,275.255 C820.4666,275.139 820.6866,275 820.9996,275 C821.5286,275 821.9566,275.398 821.9966,275.926 C822.0076,276.062 822.0466,276.188 822.0826,276.316 C822.0306,276.437 821.9996,276.57 821.9996,276.711 L821.9996,284.711 C821.9996,285.264 822.4476,285.711 822.9996,285.711 C823.5526,285.711 823.9996,285.264 823.9996,284.711 L823.9996,277.774 C824.4846,277.772 824.9606,277.595 825.3336,277.258 C825.4636,277.14 825.6846,277 825.9996,277 C826.5606,277 826.9996,277.443 826.9996,278.009 L826.9996,279.711 L826.9996,279.765 L826.9996,285.711 C826.9996,286.264 827.4476,286.711 827.9996,286.711 C828.5526,286.711 828.9996,286.264 828.9996,285.711 L828.9996,281.765 C829.4826,281.765 829.9596,281.59 830.3336,281.255 C830.4636,281.139 830.6846,281 830.9996,281 C831.5516,281 831.9996,281.448 831.9996,281.999 L831.9996,289.008 C831.9996,293.966 827.9656,298 823.0076,298 C819.7406,298 816.7256,296.224 815.1386,293.363 C815.0926,293.28 815.0366,293.195 814.9786,293.12 L814.9536,293.086 L806.2406,280.523 C805.8516,279.963 805.9346,278.978 806.3956,278.511 C806.5846,278.325 806.8326,278.222 807.0956,278.222 C807.3596,278.222 807.6086,278.327 807.7986,278.517 L810.6016,281.318 C810.9846,281.701 811.4956,281.904 812.0156,281.904 C812.2736,281.904 812.5336,281.854 812.7816,281.752 C813.5286,281.442 814.0156,280.713 814.0156,279.904 L814.0156,271.479 Z M809.9696,270 L809.9696,270.001 L809.9696,270 Z M812.0156,270.001 L812.0156,279.904 L809.2126,277.102 C808.6256,276.515 807.8606,276.222 807.0956,276.222 C806.3336,276.222 805.5736,276.512 804.9896,277.089 C803.8376,278.253 803.6546,280.306 804.5976,281.664 L813.3106,294.226 C813.3366,294.262 813.3626,294.299 813.3896,294.334 C815.2656,297.714 818.8696,300 823.0076,300 C829.0796,300 833.9996,295.078 833.9996,289.008 L833.9996,289.004 L833.9996,289.001 L833.9996,281.999 C833.9996,280.342 832.6566,279 830.9996,279 C830.2326,279 829.5316,279.289 828.9996,279.765 L828.9996,279.711 L828.9996,278.009 C828.9996,276.336 827.6566,275 825.9996,275 C825.2286,275 824.5236,275.293 823.9916,275.775 C823.8726,274.214 822.5786,273 820.9996,273 C820.2326,273 819.5316,273.29 818.9996,273.768 L818.9996,273.711 L818.9996,270.001 L812.0156,270.001 Z M821.0956,270.001 L821.0956,270 L821.0956,270.001 Z M818.9996,270 L818.9996,267.493 C818.9996,265.568 817.4366,264 815.5076,264 C813.5826,264 812.0156,265.564 812.0156,267.493 L812.0156,270 L818.9996,270 Z M808.0029,268 C805.2429,268 802.9999,265.756 802.9999,263 C802.9999,260.235 805.2339,258 808.0029,258 L825.9969,258 C828.7579,258 830.9999,260.244 830.9999,263 C830.9999,265.765 828.7659,268 825.9969,268 L821.0959,268 L821.0959,270 L825.9969,270 C829.8729,270 832.9999,266.866 832.9999,263 C832.9999,259.142 829.8649,256 825.9969,256 L808.0029,256 C804.1269,256 800.9999,259.134 800.9999,263 C800.9999,266.858 804.1349,270 808.0029,270 L809.9699,270 L809.9699,268 L808.0029,268 Z" id="UX"></path>
        </g>
    </g>
</svg>