<?xml version="1.0" encoding="UTF-8" standalone="no"?>
<svg width="30px" height="48px" viewBox="0 0 30 48" version="1.1" xmlns="http://www.w3.org/2000/svg" xmlns:xlink="http://www.w3.org/1999/xlink">
    <!-- Generator: Sketch 39.1 (31720) - http://www.bohemiancoding.com/sketch -->
    <title>MOBILE APPS</title>
    <desc>Created with Sketch.</desc>
    <defs></defs>
    <g id="Page-1" stroke="none" stroke-width="1" fill="none" fill-rule="evenodd">
        <g id="ICONS" transform="translate(-420.000000, -365.000000)" fill="#2C3E50">
            <path d="M443,379.9971 C443,380.0031 442.996,380.0001 442.997,380.0001 L439,380.0001 L438.003,380.0001 C437.994,380.0001 438,379.9941 438,379.9971 L438,386.0031 C438,385.9971 438.004,386.0001 438.003,386.0001 L439,386.0001 L442.997,386.0001 C443.006,386.0001 443,386.0061 443,386.0031 L443,379.9971 Z M445,379.9971 L445,386.0031 C445,387.1091 444.111,388.0001 442.997,388.0001 L439,388.0001 L438.003,388.0001 C436.898,388.0001 436,387.1011 436,386.0031 L436,379.9971 C436,378.8911 436.889,378.0001 438.003,378.0001 L439,378.0001 L442.997,378.0001 C444.102,378.0001 445,378.8981 445,379.9971 L445,379.9971 Z M427.003,392.0001 L431,392.0001 L431.997,392.0001 C432.003,392.0001 432,392.0041 432,391.9931 L432,380.0071 C432,380.0021 431.998,380.0001 431.997,380.0001 L431,380.0001 L427.003,380.0001 C426.997,380.0001 427,379.9971 427,380.0071 L427,391.9931 C427,391.9981 427.002,392.0001 427.003,392.0001 L427.003,392.0001 Z M434,380.0071 L434,391.9931 C434,392.3621 433.895,392.7031 433.723,393.0001 C433.378,393.5961 432.742,394.0001 431.997,394.0001 L427.003,394.0001 C425.896,394.0001 425,393.1011 425,391.9931 L425,380.0071 C425,378.8961 425.887,378.0001 427.003,378.0001 L431,378.0001 L431.997,378.0001 C433.104,378.0001 434,378.8981 434,380.0071 L434,380.0071 Z M448,373.0001 L448,369.0001 C448,367.9001 447.104,367.0001 446.004,367.0001 L444,367.0001 L426,367.0001 L423.997,367.0001 C422.898,367.0001 422,367.8991 422,369.0001 L422,373.0001 L423,373.0001 L426,373.0001 L431,373.0001 L439,373.0001 L444,373.0001 L448,373.0001 Z M448,393.0001 L448,375.0001 L444,375.0001 L439,375.0001 L431,375.0001 L426,375.0001 L423,375.0001 L422,375.0001 L422,399.0001 L422,403.0001 L423,403.0001 L429,403.0001 L441,403.0001 L448,403.0001 L448,393.0001 Z M448,405.0001 L441,405.0001 L429,405.0001 L423,405.0001 L422,405.0001 L422,409.0001 C422,410.1001 422.896,411.0001 423.997,411.0001 L429,411.0001 L441,411.0001 L446.004,411.0001 C447.102,411.0001 448,410.1011 448,409.0001 L448,405.0001 Z M450,369.0001 L450,373.0001 L450,393.0001 L450,409.0001 C450,411.2061 448.205,413.0001 446.004,413.0001 L441,413.0001 L429,413.0001 L423.997,413.0001 C421.792,413.0001 420,411.2031 420,409.0001 L420,399.0001 L420,373.0001 L420,369.0001 C420,366.7941 421.795,365.0001 423.997,365.0001 L426,365.0001 L444,365.0001 L446.004,365.0001 C448.209,365.0001 450,366.7971 450,369.0001 L450,369.0001 Z M435,407.0001 C434.448,407.0001 434,407.4471 434,408.0001 C434,408.5531 434.448,409.0001 435,409.0001 C435.553,409.0001 436,408.5531 436,408.0001 C436,407.4471 435.553,407.0001 435,407.0001 L435,407.0001 Z M439,370.0001 C439,370.5521 438.553,371.0001 438,371.0001 L432,371.0001 C431.448,371.0001 431,370.5521 431,370.0001 C431,369.4481 431.448,369.0001 432,369.0001 L438,369.0001 C438.553,369.0001 439,369.4481 439,370.0001 L439,370.0001 Z" id="MOBILE-APPS"></path>
        </g>
    </g>
</svg>